#!OML:ASF F:\VICON\USERDATA\INSTALL\rory3\rory3.ASF
:FULLY-SPECIFIED
:DEGREES
201
root 4.9233 14.77 26.882 -6.76919 -55.1852 21.0861
lowerback 16.9956 -5.38211 -19.1554
upperback -6.35533 -14.8196 -13.5319
thorax -15.9625 -5.93994 -0.446242
lowerneck -9.11904 13.6201 5.54431
upperneck 20.9817 16.1551 7.23642
head 7.84471 8.64467 2.98773
rclavicle -7.55382e-014 7.63333e-014
rhumerus -34.1593 23.4231 -14.0236
rradius 26.4812
rwrist -31.8197
rhand 34.0306 0.197051
rfingers 7.12502
rthumb 57.2896 -16.1451
lclavicle -7.55382e-014 7.63333e-014
lhumerus 36.8831 -42.5557 -6.27237
lradius 28.6155
lwrist -31.4063
lhand 35.396 22.529
lfingers 7.12502
lthumb 58.4817 37.8102
rfemur -81.7172 3.63589 13.8135
rtibia 49.0892
rfoot -19.588 -44.8826
rtoes 49.9386
lfemur -49.1068 16.1307 -45.9394
ltibia 66.5263
lfoot -32.9256 10.9994
ltoes 6.20861
202
root 4.92181 14.7167 26.8674 -7.4436 -55.1601 21.8997
lowerback 17.2948 -5.15693 -19.6722
upperback -6.43179 -14.7905 -13.6466
thorax -16.1607 -5.85856 -0.299
lowerneck -9.5466 13.4359 4.92139
upperneck 20.8819 15.8847 7.7796
head 7.78267 8.53145 3.23633
rclavicle 4.77083e-014 -2.22639e-014
rhumerus -32.6957 20.6686 -11.2306
rradius 25.015
rwrist -26.7899
rhand 33.6381 -0.159923
rfingers 7.12502
rthumb 56.9446 -16.7919
lclavicle 4.77083e-014 -2.22639e-014
lhumerus 37.476 -40.9322 -6.23191
lradius 28.1113
lwrist -31.8746
lhand 35.2785 23.1949
lfingers 7.12502
lthumb 58.3795 38.5708
rfemur -81.8787 3.42714 13.7799
rtibia 49.2519
rfoot -19.0417 -44.8911
rtoes 48.819
lfemur -49.4651 16.4568 -46.4485
ltibia 66.958
lfoot -32.8796 10.5251
ltoes 6.47811
203
root 4.92006 14.6614 26.856 -8.16697 -55.256 22.9095
lowerback 17.481 -5.0367 -20.2814
upperback -6.61816 -14.9577 -13.8312
thorax -16.4239 -5.85896 -0.148968
lowerneck -9.7556 13.404 4.91059
upperneck 20.8162 15.803 7.9435
head 7.78389 8.51124 3.29397
rclavicle 3.4191e-014 -8.90555e-014
rhumerus -31.3161 18.5794 -9.22397
rradius 23.7821
rwrist -22.4525
rhand 33.7089 -0.40523
rfingers 7.12502
rthumb 57.007 -16.9854
lclavicle 3.4191e-014 -8.90555e-014
lhumerus 37.8475 -39.6663 -6.62046
lradius 27.6885
lwrist -32.1557
lhand 35.2091 23.54
lfingers 7.12502
lthumb 58.3192 38.9715
rfemur -82.1017 3.41269 13.6899
rtibia 49.2241
rfoot -16.6489 -45.3031
rtoes 48.4602
lfemur -50.011 16.8242 -47.1112
ltibia 67.5403
lfoot -32.9521 10.1862
ltoes 6.33373
204
root 4.90132 14.6047 26.838 -9.89082 -54.8785 25.3814
lowerback 17.4825 -4.93448 -21.896
upperback -6.83417 -15.429 -14.3063
thorax -16.4709 -5.95006 0.15888
lowerneck -9.75344 13.3385 5.21227
upperneck 20.8515 15.6121 8.14849
head 7.81106 8.4617 3.30394
rclavicle 1.13307e-014 -3.49861e-014
rhumerus -30.1499 16.3245 -7.54029
rradius 22.644
rwrist -17.898
rhand 33.7616 -1.07307
rfingers 7.12502
rthumb 57.0533 -17.6146
lclavicle 1.13307e-014 -3.49861e-014
lhumerus 38.5015 -38.7775 -7.72328
lradius 27.4807
lwrist -32.3614
lhand 35.2847 23.968
lfingers 7.12502
lthumb 58.385 39.3389
rfemur -82.5514 2.96409 12.639
rtibia 49.2386
rfoot -14.6392 -45.1388
rtoes 50.6912
lfemur -50.3667 16.8749 -48.7756
ltibia 67.9169
lfoot -33.1436 10.0379
ltoes 5.27012
205
root 4.93048 14.5797 26.839 -7.72666 -55.4215 22.6318
lowerback 17.8 -4.99428 -19.9337
upperback -6.90309 -15.1464 -14.1999
thorax -17.1942 -5.93595 -0.57326
lowerneck -9.99836 13.1781 5.23284
upperneck 20.9111 15.2881 8.53175
head 7.85125 8.35053 3.41407
rclavicle 7.25564e-014 -2.54444e-014
rhumerus -29.0644 13.118 -5.50197
rradius 21.5788
rwrist -12.7163
rhand 33.6596 -1.73275
rfingers 7.12502
rthumb 56.9636 -18.3491
lclavicle 7.25564e-014 -2.54444e-014
lhumerus 39.1252 -37.6893 -8.44254
lradius 27.2846
lwrist -32.9304
lhand 35.1478 24.1735
lfingers 7.12502
lthumb 58.2659 39.6539
rfemur -82.133 3.13214 14.7564
rtibia 48.9644
rfoot -15.4583 -45.1246
rtoes 49.3108
lfemur -51.1194 17.3668 -47.1816
ltibia 68.769
lfoot -33.3531 9.9989
ltoes 3.72337
206
root 4.93692 14.5315 26.8366 -7.44709 -55.5066 22.3195
lowerback 18.0961 -4.94432 -19.5943
upperback -6.98708 -15.1826 -14.3725
thorax -17.63 -5.96012 -0.844644
lowerneck -10.1444 13.0194 5.16746
upperneck 20.8371 14.9897 8.94899
head 7.8193 8.24715 3.53189
rclavicle -5.00937e-014 -6.36111e-014
rhumerus -27.9611 8.90694 -3.23854
rradius 20.4398
rwrist -6.5155
rhand 33.4538 -2.04036
rfingers 7.12502
rthumb 56.7823 -18.8063
lclavicle -5.00937e-014 -6.36111e-014
lhumerus 39.3704 -36.0844 -8.38422
lradius 26.9501
lwrist -34.3489
lhand 34.9123 24.283
lfingers 7.12502
lthumb 58.0607 39.9498
rfemur -82.0652 3.05757 15.4388
rtibia 48.7636
rfoot -15.5435 -45.365
rtoes 48.5241
lfemur -51.5462 17.7131 -47.1687
ltibia 69.3915
lfoot -33.6436 10.2131
ltoes 0.838652
207
root 4.9363 14.4854 26.8266 -7.98688 -55.2844 23.0968
lowerback 18.3801 -4.92742 -20.03
upperback -7.08366 -15.4856 -14.6392
thorax -17.9099 -6.04294 -0.810617
lowerneck -9.95222 12.9102 4.84015
upperneck 20.4796 14.8518 9.37625
head 7.60518 8.19504 3.65551
rclavicle 1.94809e-014 1.145e-013
rhumerus -26.9938 3.85141 -0.803743
rradius 19.3818
rwrist 0.509054
rhand 32.9713 -2.03733
rfingers 7.12502
rthumb 56.3566 -19.1471
lclavicle 1.94809e-014 1.145e-013
lhumerus 39.224 -34.2319 -7.81433
lradius 26.6137
lwrist -36.1714
lhand 34.8238 24.056
lfingers 7.12502
lthumb 57.9836 39.7921
rfemur -82.1735 2.61859 15.3804
rtibia 48.5781
rfoot -14.0773 -45.9423
rtoes 48.0932
lfemur -51.856 17.8281 -47.8129
ltibia 69.9203
lfoot -33.8348 10.4988
ltoes -1.71282
208
root 4.93544 14.44 26.8158 -7.87049 -55.1581 23.0983
lowerback 18.5841 -4.96826 -20.0758
upperback -7.16216 -15.6752 -14.7107
thorax -18.1413 -6.10031 -0.779912
lowerneck -10.1175 12.8652 5.07769
upperneck 20.3685 14.7612 9.27886
head 7.62978 8.16213 3.59397
rclavicle 6.67916e-014 -1.55847e-013
rhumerus -26.1909 -1.09936 1.44552
rradius 18.3517
rwrist 6.6758
rhand 31.2645 -2.27408
rfingers 7.12502
rthumb 54.8401 -20.5278
lclavicle 6.67916e-014 -1.55847e-013
lhumerus 39.2162 -32.7521 -7.50964
lradius 26.3969
lwrist -37.1937
lhand 34.5904 24.3571
lfingers 7.12502
lthumb 57.7798 40.2745
rfemur -82.2486 2.30647 15.8225
rtibia 48.4992
rfoot -11.7365 -46.3128
rtoes 47.2636
lfemur -52.3248 17.9219 -47.9363
ltibia 70.4347
lfoot -33.8057 10.5647
ltoes -3.01956
209
root 4.9339 14.3961 26.8042 -8.13449 -55.0802 23.4998
lowerback 18.7675 -4.89508 -20.3327
upperback -7.21211 -15.7786 -14.8775
thorax -18.3181 -6.11443 -0.789109
lowerneck -10.1864 12.792 5.11287
upperneck 20.1717 14.6368 9.40753
head 7.57316 8.11795 3.61191
rclavicle 1.04362e-013 1.04958e-013
rhumerus -25.6074 -7.10635 3.78357
rradius 17.0853
rwrist 13.1734
rhand 29.2941 -2.37209
rfingers 7.12502
rthumb 53.0712 -21.8193
lclavicle 1.04362e-013 1.04958e-013
lhumerus 39.4178 -31.3513 -7.19242
lradius 26.0506
lwrist -37.9898
lhand 34.0703 24.7605
lfingers 7.12502
lthumb 57.3244 41.073
rfemur -82.2841 2.07313 16.0481
rtibia 48.4066
rfoot -9.66636 -46.5646
rtoes 45.5102
lfemur -52.7189 18.0533 -48.2313
ltibia 70.9318
lfoot -34.0081 10.2296
ltoes -2.86974
